<svg width="150" height="60" viewBox="0 0 150 60" fill="none" xmlns="http://www.w3.org/2000/svg">
<path fill-rule="evenodd" clip-rule="evenodd" d="M0.0751953 59.0752H120.009C136.062 59.0752 149.075 45.8682 149.075 29.5752C149.075 13.2822 136.065 0.0751953 120.012 0.0751953H29.1437C13.0879 0.0751953 0.0751953 13.2822 0.0751953 29.5752V59.0752ZM30.8814 46.2538L30.8793 46.2494L30.8814 46.2506V46.2538ZM30.8793 46.2494C24.0432 42.393 22.2375 38.7446 23.2695 33.7581C23.6123 32.0976 24.3715 30.5772 25.1237 29.0708C26.039 27.238 26.9438 25.426 27.0755 23.4078C28.1399 25.343 28.265 26.7402 28.385 28.7619C31.7671 24.6173 35.2763 19.0722 34.5165 14C34.5165 14 40.9304 16.0165 43.5249 25.8539C45.0564 24.4902 44.9118 21.6809 44.1533 20.0231C46.4265 21.6822 59.4958 36.4106 42.1006 46.2564C45.3666 39.8869 42.9392 31.2951 37.2625 27.326C37.6431 29.0316 37.1709 33.4871 34.6552 36.2842C35.2254 33.3936 33.8023 31.5448 33.8023 31.5448C33.8023 31.5448 33.3327 34.1606 31.5265 36.8054C29.8783 39.2217 28.7315 41.7798 30.8793 46.2494ZM125.33 19.6572H106.99V22.8945H114.3V42.0107H117.933V22.8945H125.33V19.6572ZM85.3174 37.2793V24.5791C85.3174 23.1533 85.7275 22.0059 86.5479 21.1367C87.4658 20.1699 88.6768 19.6865 90.1807 19.6865H98.4863C99.9805 19.6865 101.177 20.1699 102.075 21.1367C102.886 22.0059 103.291 23.1533 103.291 24.5791V37.2793C103.291 38.6855 102.886 39.8135 102.075 40.6631C101.177 41.6201 99.9805 42.0986 98.4863 42.0986H90.1807C88.6865 42.0986 87.4756 41.6201 86.5479 40.6631C85.7275 39.8135 85.3174 38.6855 85.3174 37.2793ZM91.3379 38.8613H97.2705C98.8623 38.8613 99.6582 38.2168 99.6582 36.9277V24.8574C99.6582 23.5684 98.8623 22.9238 97.2705 22.9238H91.3379C89.7461 22.9238 88.9502 23.5684 88.9502 24.8574V36.9277C88.9502 38.2168 89.7461 38.8613 91.3379 38.8613ZM77.9854 28.2266H67.3945V19.6279H63.7617V41.9961H67.3945V31.4639H77.9854V41.9961H81.6182V19.6279H77.9854V28.2266Z" fill="#F80D31"/>
</svg>
