<svg width="12" height="17" viewBox="0 0 12 17" fill="none" xmlns="http://www.w3.org/2000/svg">
<path d="M10.4 0C10.8243 0 11.2313 0.168572 11.5314 0.46863C11.8314 0.768687 12 1.17565 12 1.6V15.2C12 15.4101 11.9586 15.6182 11.8782 15.8123C11.7978 16.0064 11.6799 16.1828 11.5314 16.3314C11.3828 16.4799 11.2064 16.5978 11.0123 16.6782C10.8182 16.7586 10.6101 16.8 10.4 16.8H1.60001C1.38989 16.8 1.18184 16.7586 0.987725 16.6782C0.793574 16.5978 0.617203 16.4799 0.468634 16.3314C0.320064 16.1828 0.202199 16.0064 0.121793 15.8123C0.0413837 15.6182 0 15.4101 0 15.2V1.6C0 1.17565 0.168572 0.768687 0.468634 0.46863C0.768691 0.168572 1.17565 0 1.60001 0H10.4ZM6.90002 15H5.09998C5.02042 15 4.94412 15.0316 4.88786 15.0879C4.8316 15.1441 4.8 15.2204 4.8 15.3C4.8 15.3796 4.8316 15.4559 4.88786 15.5121C4.94412 15.5684 5.02042 15.6 5.09998 15.6H6.90002C6.97958 15.6 7.05589 15.5684 7.11214 15.5121C7.1684 15.4559 7.2 15.3796 7.2 15.3C7.2 15.2204 7.1684 15.1441 7.11214 15.0879C7.05589 15.0316 6.97958 15 6.90002 15ZM9.76 1.04H2.24C1.92174 1.04 1.6165 1.16643 1.39148 1.39147C1.16641 1.61651 1.04 1.92174 1.04 2.24V12.76C1.04 13.0783 1.16641 13.3835 1.39148 13.6085C1.6165 13.8336 1.92174 13.96 2.24 13.96H9.76C10.0783 13.96 10.3835 13.8336 10.6085 13.6085C10.8336 13.3835 10.96 13.0783 10.96 12.76V2.24C10.96 1.94 10.8336 1.61651 10.6085 1.39147C10.3835 1.16643 10.0783 1.04 9.76 1.04Z" fill="#ffffff"/>
</svg>
